<?xml version="1.0" encoding="UTF-8"?>
<svg width="32px" height="32px" viewBox="0 0 32 32" version="1.1" xmlns="http://www.w3.org/2000/svg">
    <g fill="#F7931A">
        <path d="M16,32 C24.8365564,32 32,24.8365564 32,16 C32,7.16344357 24.8365564,0 16,0 C7.16344357,0 0,7.16344357 0,16 C0,24.8365564 7.16344357,32 16,32 Z"/>
    </g>
    <path d="M22.7077504,14.0304388 C23.0714957,11.9879996 21.5040122,10.8941829 19.3532762,10.1580672 L20.0908929,7.35553879 L18.3697585,6.9216784 L17.6486585,9.65599933 C17.1896098,9.52816317 16.7157875,9.40792938 16.2451039,9.28860425 L16.9728762,6.53266872 L15.2530762,6.09880833 L14.5147262,8.90042807 C14.1341734,8.80392416 13.7603457,8.70878758 13.3974762,8.60848105 L13.3989039,8.60228647 L11.0895457,7.99979382 L10.6186293,9.83913183 C10.6186293,9.83913183 11.9137457,10.1470456 11.8857457,10.1657478 C12.5982621,10.3396892 12.7372621,10.8219154 12.7155457,11.2097478 L11.8857457,14.3998262 C11.9382621,14.4130672 12.0054348,14.4322262 12.0797457,14.4610888 C12.0172621,14.4451045 11.9500895,14.4277478 11.8815457,14.4117632 L10.7106293,18.9514782 C10.6186293,19.1808262 10.3847457,19.5146888 9.89847666,19.3936892 C9.91608529,19.4178262 8.63235802,19.0644262 8.63235802,19.0644262 L7.75999984,21.0273848 L9.94456166,21.5975738 C10.3644957,21.7160998 10.7747457,21.8399738 11.1783457,21.9558262 L10.4327457,24.7913848 L12.1512621,25.2252442 L12.8895457,22.4220998 C13.3689039,22.5645738 13.8347457,22.6959738 14.2899039,22.8195738 L13.5543457,25.6075738 L15.2754762,26.0414332 L16.0210762,23.2106888 C19.0293457,23.7942262 21.2847457,23.5744782 22.2664957,20.8548262 C23.0574348,18.6579738 22.2514348,17.3973848 20.6014348,16.5771045 C21.7947457,16.2859738 22.4474348,15.4657478 22.7077504,14.0304388 Z M18.8899039,19.5917478 C18.3347457,21.7886002 14.7347457,20.6354782 13.5139039,20.3219738 L14.5014348,16.5149738 C15.7222762,16.8301478 19.4674348,17.3039738 18.8899039,19.5917478 Z M19.4464957,14.0091045 C18.9389039,16.0269738 15.9339039,15.0334782 14.9139039,14.7696892 L15.8139039,11.3133848 C16.8339039,11.5771738 19.9734348,11.9087478 19.4464957,14.0091045 Z" fill="white"/>
</svg> 